Coordinates
version=1
nRows=8
nColumns=36
inDegrees=yes

Units are S.I. units (second, meters, Newtons, ...)
If the header above contains a line with 'inDegrees', this indicates whether rotational values are in degrees (yes) or radians (no).

endheader
time	pelvis_tilt	pelvis_list	pelvis_rotation	pelvis_tx	pelvis_ty	pelvis_tz	hip_flexion_r	hip_adduction_r	hip_rotation_r	knee_angle_r	knee_angle_r_beta	ankle_angle_r	subtalar_angle_r	mtp_angle_r	hip_flexion_l	hip_adduction_l	hip_rotation_l	knee_angle_l	knee_angle_l_beta	ankle_angle_l	subtalar_angle_l	mtp_angle_l	lumbar_extension	lumbar_bending	lumbar_rotation	arm_flex_r	arm_add_r	arm_rot_r	elbow_flex_r	pro_sup_r	arm_flex_l	arm_add_l	arm_rot_l	elbow_flex_l	pro_sup_l
      0.00000000	      2.51290827	      2.89422449	      2.81387262	     -0.22112970	      0.92119733	     -0.28748503	     24.59893554	     -3.46763798	     -4.65855646	      1.51929921	      0.02651677	      6.67627138	     -2.62568682	     -5.51398654	    -22.27939914	      4.47999009	      2.44271711	      9.06089571	      0.15814246	     14.97318630	     -0.00919164	     -5.51398654	     -6.32580427	     -3.24876744	     -8.94394100	    -10.75511734	     -1.13578258	    -23.80719810	     29.62468484	    112.17365867	     12.37922922	     -9.21388802	      3.24705697	     47.29637524	    108.10374570
      0.01000000	      2.60310279	      2.58492902	      2.89441099	     -0.20599168	      0.92027720	     -0.28609331	     24.36137418	     -3.01629198	     -5.01127948	      2.47102457	      0.04312751	      6.19340357	     -3.68341268	     -5.53217007	    -22.67959273	      3.91140684	      2.17593053	     10.16715773	      0.17745038	     14.08766418	     -0.03748661	     -5.53217007	     -6.24222414	     -2.81112865	     -8.73858792	    -10.98440755	     -1.21421723	    -23.94178355	     29.38839346	    112.14802155	     11.83733251	     -8.81147817	      2.99140964	     47.36227145	    108.12852900
      0.02000000	      2.48681821	      2.27030344	      2.84704327	     -0.19089979	      0.91911025	     -0.28429517	     24.23610645	     -2.40722326	     -4.08413952	      3.11722199	      0.05440579	      3.69354442	     -7.54595232	     -5.63288215	    -22.78524701	      3.36448414	      1.66738650	     11.37888859	      0.19859907	     13.29706299	      0.03713285	     -5.63288215	     -5.93107726	     -2.42271139	     -8.91367886	    -10.91503051	     -1.23507456	    -24.34713429	     29.06793993	    112.11033888	     10.70281607	     -8.26632435	      1.19902372	     48.07683119	    108.29681922
      0.03000000	      2.52317716	      1.89199666	      2.85093503	     -0.17555892	      0.91832485	     -0.28264227	     24.13227977	     -1.85829228	     -4.57238582	      4.22195536	      0.07368702	      2.75188653	     -8.39326326	     -5.65376461	    -22.97646328	      2.72692696	      1.19359989	     12.69807418	      0.22162320	     12.13052890	     -0.06602131	     -5.65376461	     -5.75870511	     -1.91340887	     -8.69443625	    -11.14019355	     -1.33395596	    -24.41613431	     28.89361179	    112.09767098	     10.04346584	     -7.85696779	      0.91027477	     48.06485712	    108.32833826
      0.04000000	      2.35092091	      1.49352165	      2.76263380	     -0.16012562	      0.91750495	     -0.28076546	     24.09147339	     -1.18554541	     -3.93885422	      4.99251266	      0.08713578	      0.00791777	    -11.32218250	     -5.74259636	    -22.79936106	      2.11718884	      0.74898646	     14.25695006	      0.24883072	     10.92183771	     -0.26620598	     -5.74259636	     -5.31954377	     -1.39694346	     -8.74009339	    -11.16665698	     -1.43288622	    -24.67469635	     28.64338556	    112.06646034	      8.94658050	     -7.28467067	     -0.62990038	     48.34422050	    108.47442145
      0.05000000	      2.34831293	      0.99943308	      2.65100242	     -0.14443759	      0.91721806	     -0.27884076	     23.96405593	     -0.49588363	     -4.29885090	      6.07410609	      0.10601315	     -1.23212949	    -11.69330215	     -5.76202775	    -22.66661784	      1.38108459	      0.12998830	     16.01781449	      0.27956360	      9.30891701	     -0.44004012	     -5.76202775	     -5.05265390	     -0.72617474	     -8.45843192	    -11.36458218	     -1.55755026	    -24.73657255	     28.53389531	    112.05445982	      8.17732922	     -6.87545674	     -0.90583626	     48.10714983	    108.48501408
      0.06000000	      2.15734108	      0.46957752	      2.46378887	     -0.12867074	      0.91700070	     -0.27670640	     23.92657112	      0.31882023	     -3.81547265	      6.94007123	      0.12112709	     -3.93623678	    -13.95342278	     -5.85932408	    -22.13508851	      0.65348836	     -0.47128284	     18.04120545	      0.31487844	      7.31068951	     -1.11968461	     -5.85932408	     -4.53538077	     -0.06668012	     -8.31223791	    -11.48397759	     -1.70932651	    -24.98939377	     28.39581324	    112.02885456	      7.12716882	     -6.29914304	     -2.12827753	     47.87708233	    108.64534026
      0.07000000	      2.15141457	     -0.09388320	      2.24448847	     -0.11287439	      0.91735917	     -0.27456323	     23.74460446	      1.08850726	     -3.99536400	      8.06984654	      0.14084539	     -4.92844033	    -14.02104483	     -5.87635825	    -21.57405447	     -0.16238187	     -1.26461977	     20.41012708	      0.35622392	      5.13917172	     -1.36684559	     -5.87635825	     -4.27672940	      0.67904507	     -7.93765382	    -11.65751905	     -1.89109439	    -25.05954231	     28.35907814	    112.02043394	      6.29395431	     -5.86457139	     -2.44280959	     47.34169214	    108.61288490
